<?xml version="1.0" standalone="no"?>
<!DOCTYPE svg PUBLIC "-//W3C//DTD SVG 20010904//EN"
 "http://www.w3.org/TR/2001/REC-SVG-20010904/DTD/svg10.dtd">
<svg version="1.0" xmlns="http://www.w3.org/2000/svg"
 width="512.000000pt" height="512.000000pt" viewBox="0 0 512.000000 512.000000"
 preserveAspectRatio="xMidYMid meet">
<metadata>
Created by potrace 1.14, written by Peter Selinger 2001-2017
</metadata>
<g transform="translate(0.000000,512.000000) scale(0.100000,-0.100000)"
fill="#000000" stroke="none">
<path d="M2177 3010 c-92 -23 -176 -94 -196 -167 -18 -62 -13 -142 10 -190 37
-77 84 -106 263 -164 198 -64 226 -85 226 -171 0 -66 -31 -116 -87 -143 -44
-22 -127 -24 -164 -5 -85 44 -149 122 -149 182 l0 38 -55 0 -55 0 0 -165 0
-165 55 0 55 0 0 35 c0 19 2 35 5 35 2 0 26 -14 52 -30 61 -39 109 -51 194
-51 122 0 231 72 265 174 20 62 15 176 -11 227 -43 87 -85 112 -280 170 -165
49 -170 52 -195 93 -38 62 -14 138 53 170 46 22 147 22 190 1 58 -29 107 -84
107 -121 l0 -33 55 0 55 0 0 140 0 140 -55 0 c-54 0 -55 0 -55 -30 0 -16 -2
-30 -4 -30 -2 0 -32 13 -67 29 -71 33 -154 45 -212 31z"/>
<path d="M2870 3011 c-136 -31 -210 -119 -210 -250 0 -81 22 -133 78 -183 33
-30 69 -46 203 -89 193 -62 219 -80 226 -155 17 -175 -203 -243 -333 -102 -50
53 -64 80 -64 120 l0 38 -55 0 -55 0 0 -165 0 -165 55 0 55 0 0 35 c0 34 12
46 25 25 13 -20 104 -60 159 -68 233 -37 397 143 331 364 -19 65 -72 126 -132
152 -27 11 -100 35 -163 52 -63 18 -127 38 -142 46 -95 49 -90 179 8 220 40
17 114 18 169 3 56 -16 125 -86 125 -128 0 -31 0 -31 55 -31 l55 0 0 140 0
140 -55 0 c-54 0 -55 0 -55 -30 0 -16 -3 -30 -6 -30 -4 0 -34 13 -68 29 -66
32 -148 45 -206 32z"/>
<path d="M280 2945 l0 -55 60 0 60 0 0 -360 0 -360 -60 0 -60 0 0 -55 0 -55
190 0 190 0 0 55 0 54 -62 3 -63 3 0 155 0 155 153 3 152 3 0 54 0 54 -152 3
-153 3 0 140 0 140 182 3 182 2 3 -82 3 -83 53 -3 52 -3 0 140 0 141 -365 0
-365 0 0 -55z"/>
<path d="M1050 2945 l0 -55 59 0 60 0 4 -317 c2 -217 8 -330 16 -357 7 -21 34
-60 59 -85 37 -37 61 -51 109 -64 78 -22 229 -23 298 -3 64 20 127 73 157 134
22 46 23 55 26 370 l3 322 60 0 60 0 -3 53 -3 52 -177 3 -178 2 0 -54 0 -55
53 -3 52 -3 3 -210 c4 -289 -4 -406 -32 -447 -69 -104 -274 -104 -343 1 -23
33 -23 39 -23 347 l0 314 55 0 55 0 0 55 0 55 -185 0 -185 0 0 -55z"/>
<path d="M3330 2945 l0 -54 58 -3 57 -3 3 -357 2 -358 -60 0 -60 0 0 -55 0
-55 390 0 391 0 -3 138 -3 137 -52 3 -53 3 0 -85 0 -86 -210 0 -211 0 3 158 3
157 178 3 178 2 -3 53 -3 52 -178 3 -178 2 3 143 3 142 205 0 205 0 3 -82 3
-83 54 0 55 0 0 140 0 140 -390 0 -390 0 0 -55z"/>
<path d="M4150 2945 l0 -55 60 0 60 0 0 -360 0 -360 -60 0 -60 0 0 -55 0 -55
345 0 345 0 0 215 0 215 -65 0 -65 0 0 -160 0 -160 -150 0 -150 0 2 358 3 357
58 3 57 3 0 54 0 55 -190 0 -190 0 0 -55z"/>
</g>
</svg>
