<?xml version="1.0" standalone="no"?>
<!DOCTYPE svg PUBLIC "-//W3C//DTD SVG 20010904//EN"
 "http://www.w3.org/TR/2001/REC-SVG-20010904/DTD/svg10.dtd">
<svg version="1.0" xmlns="http://www.w3.org/2000/svg"
 width="300.000000pt" height="300.000000pt" viewBox="0 0 300.000000 300.000000"
 preserveAspectRatio="xMidYMid meet">
<metadata>
Created by potrace 1.14, written by Peter Selinger 2001-2017
</metadata>
<g transform="translate(0.000000,300.000000) scale(0.100000,-0.100000)"
fill="#000000" stroke="none">
<path d="M1285 2984 c-388 -59 -721 -252 -963 -557 -154 -195 -256 -426 -301
-684 -15 -83 -18 -145 -16 -268 5 -250 49 -432 158 -655 31 -62 138 -226 184
-280 251 -294 594 -481 973 -529 116 -15 349 -6 467 17 600 120 1064 583 1184
1183 27 130 33 373 13 504 -26 172 -71 311 -156 476 -213 416 -614 708 -1083
789 -102 18 -354 20 -460 4z"/>
</g>
</svg>
