<?xml version="1.0" standalone="no"?>
<!DOCTYPE svg PUBLIC "-//W3C//DTD SVG 20010904//EN"
 "http://www.w3.org/TR/2001/REC-SVG-20010904/DTD/svg10.dtd">
<svg version="1.0" xmlns="http://www.w3.org/2000/svg"
 width="512.000000pt" height="512.000000pt" viewBox="0 0 512.000000 512.000000"
 preserveAspectRatio="xMidYMid meet">
<metadata>
Created by potrace 1.14, written by Peter Selinger 2001-2017
</metadata>
<g transform="translate(0.000000,512.000000) scale(0.100000,-0.100000)"
fill="#000000" stroke="none">
<path d="M2379 5116 c-2 -2 -40 -6 -83 -10 -44 -4 -82 -8 -85 -10 -3 -2 -31
-7 -61 -11 -30 -3 -75 -11 -100 -17 -25 -5 -56 -12 -70 -15 -94 -19 -288 -80
-309 -97 -8 -6 -15 -10 -15 -8 -1 2 -9 1 -18 -2 -10 -3 -26 -9 -35 -12 -10 -3
-18 -5 -18 -4 0 1 -37 -17 -82 -39 -45 -23 -85 -41 -89 -41 -4 0 -29 -13 -55
-30 -27 -16 -49 -26 -49 -22 0 4 -4 2 -8 -4 -4 -6 -31 -24 -59 -39 -29 -15
-53 -30 -53 -34 0 -3 -13 -12 -28 -18 -27 -12 -45 -25 -102 -70 -15 -13 -31
-23 -35 -23 -4 0 -18 -11 -31 -26 -13 -14 -24 -22 -24 -19 0 4 -6 0 -13 -7 -8
-7 -40 -35 -72 -63 -77 -66 -199 -187 -255 -254 -25 -30 -50 -59 -56 -65 -42
-45 -214 -296 -214 -314 0 -6 -4 -12 -9 -14 -8 -3 -141 -259 -141 -271 0 -2
-8 -22 -17 -43 -9 -22 -17 -41 -18 -44 0 -3 -6 -15 -13 -27 -7 -13 -11 -23 -8
-23 3 0 -2 -17 -11 -37 -13 -32 -49 -150 -57 -188 -1 -5 -5 -19 -9 -30 -3 -11
-8 -31 -11 -45 -3 -14 -10 -50 -16 -80 -16 -77 -25 -140 -39 -255 -9 -77 -6
-479 4 -535 16 -86 24 -154 20 -158 -3 -3 -1 -10 4 -16 5 -6 11 -29 14 -51 3
-22 8 -47 11 -55 3 -8 8 -26 10 -40 9 -44 36 -144 46 -165 5 -11 12 -31 16
-45 21 -76 129 -323 184 -420 132 -231 262 -401 451 -589 82 -81 97 -95 174
-156 28 -21 55 -44 60 -50 6 -6 57 -42 115 -80 58 -39 108 -74 112 -80 4 -5 8
-6 8 -2 0 5 12 0 27 -11 78 -55 410 -205 482 -219 14 -2 29 -7 35 -11 6 -3 16
-8 21 -9 101 -27 244 -63 273 -67 20 -3 53 -8 72 -11 19 -3 46 -8 59 -11 119
-26 549 -26 706 1 64 11 115 20 168 29 229 41 559 170 781 304 37 23 72 42 77
42 5 0 9 4 9 8 0 5 11 14 24 20 14 6 33 18 43 26 10 8 43 33 73 55 61 44 109
83 151 123 16 14 29 25 29 22 0 -2 41 37 90 87 50 49 90 94 90 100 0 6 5 7 10
4 6 -3 10 -2 10 3 0 5 12 22 26 38 14 16 33 38 43 49 10 11 46 58 79 105 34
47 66 90 70 95 5 6 21 33 37 60 16 28 32 52 35 55 5 4 53 94 101 190 31 60 65
142 99 235 17 50 37 102 42 117 6 15 10 30 9 32 0 3 6 24 14 46 8 22 14 42 15
45 0 3 0 6 1 8 0 1 2 11 4 22 2 11 6 29 8 40 2 11 7 27 10 35 5 13 11 43 21
120 2 14 5 25 6 25 1 0 3 14 5 30 1 17 6 64 11 105 16 143 9 525 -11 620 -3
14 -8 39 -10 55 -5 36 -13 80 -21 115 -3 14 -8 36 -11 50 -10 57 -75 265 -104
335 -6 17 -13 35 -14 40 -13 56 -200 415 -216 415 -5 0 -9 5 -9 11 0 12 -89
143 -120 176 -11 12 -20 26 -20 30 0 5 -8 16 -17 24 -10 9 -38 40 -63 69 -46
54 -195 205 -246 250 -16 13 -72 57 -124 97 -52 40 -102 78 -110 85 -8 7 -28
20 -44 28 -58 30 -66 35 -66 42 0 5 -5 8 -12 8 -6 0 -19 6 -27 14 -24 20 -263
139 -356 176 -114 46 -384 124 -463 135 -27 3 -72 10 -127 20 -16 3 -46 8 -65
10 -45 6 -466 15 -471 11z"/>
</g>
</svg>
